<?xml version="1.0" encoding="UTF-8"?>
<svg width="1920" height="1080" version="1.1" viewBox="0 0 507.99998 285.75001" xmlns="http://www.w3.org/2000/svg" xmlns:xlink="http://www.w3.org/1999/xlink">
 <defs>
  <radialGradient id="n" cx="779.73" cy="936.77" r="144.44" gradientTransform="matrix(2.3242 0 0 1.6395 -1558.3 -1381.7)" gradientUnits="userSpaceOnUse">
   <stop stop-color="#9183e7" offset="0"/>
   <stop stop-color="#504992" offset=".61625"/>
   <stop stop-color="#2d1650" offset="1"/>
  </radialGradient>
  <filter id="i" color-interpolation-filters="sRGB">
   <feGaussianBlur stdDeviation="0.88104839"/>
  </filter>
  <filter id="j" x="-.36" y="-.36" width="1.72" height="1.72" color-interpolation-filters="sRGB">
   <feGaussianBlur stdDeviation="1.5190972"/>
  </filter>
  <filter id="k" x="-.0324" y="-.0324" width="1.0648" height="1.0648" color-interpolation-filters="sRGB">
   <feGaussianBlur stdDeviation="0.62165439"/>
  </filter>
  <filter id="l" x="-.024" y="-.024" width="1.048" height="1.048" color-interpolation-filters="sRGB">
   <feGaussianBlur stdDeviation="0.46048473"/>
  </filter>
  <filter id="m" x="-.0576" y="-.0576" width="1.1152" height="1.1152" color-interpolation-filters="sRGB">
   <feGaussianBlur stdDeviation="0.24305555"/>
  </filter>
 </defs>
 <g transform="translate(0 -11.25)">
  <rect x="3.3752e-7" y="11.25" width="508" height="285.75" color="#000000" fill="url(#n)"/>
  <circle transform="rotate(-90)" cx="-154.12" cy="254" r="126.53" color="#000000" fill="#37abc8"/>
  <circle transform="rotate(-90)" cx="-154.13" cy="254" r="123.03" color="#000000" fill="#d3cffb"/>
  <g transform="matrix(.80969 0 0 .80969 44.024 187.34)">
   <g transform="translate(75,-36)">
    <path id="b" d="m159.51-132.06c1.1884-6.7658 5.5323-12.982 12.282-17.574 3.5896-2.4425 11.069-6.0188 12.587-6.0188 1.5087 0 8.976 3.5644 12.587 6.0083 3.7737 2.5539 7.674 6.6441 9.5609 10.027 1.3558 2.4304 2.9165 7.0654 2.9165 8.6618 0 0.46567-4.9069 0.57874-25.114 0.57874h-25.114z" fill="#ad9bf3"/>
    <use transform="rotate(24 184.33 -4.6045)" width="100%" height="100%" xlink:href="#b"/>
    <use transform="rotate(48 184.33 -4.6045)" width="100%" height="100%" xlink:href="#b"/>
    <use transform="rotate(72 184.33 -4.6045)" width="100%" height="100%" xlink:href="#b"/>
    <use transform="rotate(96 184.33 -4.6045)" width="100%" height="100%" xlink:href="#b"/>
    <use transform="rotate(120 184.33 -4.6045)" width="100%" height="100%" xlink:href="#b"/>
    <use transform="rotate(144 184.33 -4.6045)" width="100%" height="100%" xlink:href="#b"/>
    <use transform="rotate(168 184.33 -4.6045)" width="100%" height="100%" xlink:href="#b"/>
    <use transform="rotate(192 184.33 -4.6045)" width="100%" height="100%" xlink:href="#b"/>
    <use transform="rotate(216 184.33 -4.6045)" width="100%" height="100%" xlink:href="#b"/>
    <use transform="rotate(240 184.33 -4.6045)" width="100%" height="100%" xlink:href="#b"/>
    <use transform="rotate(264 184.33 -4.6045)" width="100%" height="100%" xlink:href="#b"/>
    <use transform="rotate(-72 184.33 -4.6045)" width="100%" height="100%" xlink:href="#b"/>
    <use transform="rotate(-48 184.33 -4.6045)" width="100%" height="100%" xlink:href="#b"/>
    <use transform="rotate(-24 184.33 -4.6045)" width="100%" height="100%" xlink:href="#b"/>
   </g>
  </g>
  <path d="m253.98 49.77c-57.639 0-104.33 46.693-104.33 104.33 0 57.639 46.693 104.38 104.33 104.38s104.38-46.74 104.38-104.38c0-57.639-46.74-104.33-104.38-104.33zm0 21.299c45.858 0 83.033 37.175 83.033 83.033s-37.175 83.033-83.033 83.033-83.033-37.175-83.033-83.033 37.175-83.033 83.033-83.033z" color="#000000" fill="#c9eff6" stroke="#c9eff6" stroke-width=".37614"/>
  <circle transform="rotate(-45.319)" cx="114.61" cy="455.4" r="10.333" color="#000000" fill="#817bb3"/>
  <circle transform="rotate(-45.319)" cx="126.66" cy="499.37" r="6.0624" color="#000000" fill="#8c85b0"/>
  <circle transform="rotate(134.68)" cx="-20.336" cy="-111.62" r="8.058" color="#000000" fill="#6962a4"/>
  <circle transform="rotate(134.68)" cx="-10.934" cy="-77.334" r="4.7276" color="#000000" fill="#6b629b"/>
  <circle transform="rotate(134.68)" cx="-5.8116" cy="-58.314" r="3.0398" color="#000000" fill="#5d528b"/>
  <g transform="matrix(.82649 0 0 .82649 22.583 -484.23)">
   <g transform="matrix(1.8184 0 0 1.8184 -1183.8 -706.08)">
    <g transform="rotate(-90 694.12 488.14)" color="#000000" fill="#5ac6dc" stroke="#5ec7dd" stroke-width=".7676px">
     <path id="a" d="m437.54 599.07c-4.0377-5.091-9.0006-5.4166-13.463-5.4862v10.972c5.6063-0.75997 8.7656-0.42948 13.463-5.4862z" color="#000000" fill="#5ac6dc" stroke="#5ec7dd" stroke-width=".74949px"/>
     <use transform="rotate(11.25 368.99 599.01)" width="100%" height="100%" xlink:href="#a"/>
     <use transform="rotate(22.5 368.99 599.01)" width="100%" height="100%" xlink:href="#a"/>
     <use transform="rotate(33.75 368.99 599.01)" width="100%" height="100%" xlink:href="#a"/>
     <use transform="rotate(45 368.99 599.01)" width="100%" height="100%" xlink:href="#a"/>
     <use transform="rotate(56.25 368.99 599.01)" width="100%" height="100%" xlink:href="#a"/>
     <use transform="rotate(67.5 368.99 599.01)" width="100%" height="100%" xlink:href="#a"/>
     <use transform="rotate(78.75 368.99 599.01)" width="100%" height="100%" xlink:href="#a"/>
     <use transform="rotate(90 368.99 599.01)" width="100%" height="100%" xlink:href="#a"/>
     <use transform="rotate(101.25 368.99 599.01)" width="100%" height="100%" xlink:href="#a"/>
     <use transform="rotate(112.5 368.99 599.01)" width="100%" height="100%" xlink:href="#a"/>
     <use transform="rotate(123.75 368.99 599.01)" width="100%" height="100%" xlink:href="#a"/>
     <use transform="rotate(135 368.99 599.01)" width="100%" height="100%" xlink:href="#a"/>
     <use transform="rotate(146.25 368.99 599.01)" width="100%" height="100%" xlink:href="#a"/>
     <use transform="rotate(157.5 368.99 599.01)" width="100%" height="100%" xlink:href="#a"/>
     <use transform="rotate(168.75 368.99 599.01)" width="100%" height="100%" xlink:href="#a"/>
     <use transform="rotate(180 368.99 599.01)" width="100%" height="100%" xlink:href="#a"/>
     <use transform="rotate(191.25 368.99 599.01)" width="100%" height="100%" xlink:href="#a"/>
     <use transform="rotate(202.5 368.99 599.01)" width="100%" height="100%" xlink:href="#a"/>
     <use transform="rotate(213.75 368.99 599.01)" width="100%" height="100%" xlink:href="#a"/>
     <use transform="rotate(225 368.99 599.01)" width="100%" height="100%" xlink:href="#a"/>
     <use transform="rotate(236.25 368.99 599.01)" width="100%" height="100%" xlink:href="#a"/>
     <use transform="rotate(247.5 368.99 599.01)" width="100%" height="100%" xlink:href="#a"/>
     <use transform="rotate(258.75 368.99 599.01)" width="100%" height="100%" xlink:href="#a"/>
     <use transform="rotate(-90 368.99 599.01)" width="100%" height="100%" xlink:href="#a"/>
     <use transform="rotate(-78.75 368.99 599.01)" width="100%" height="100%" xlink:href="#a"/>
     <use transform="rotate(-67.5 368.99 599.01)" width="100%" height="100%" xlink:href="#a"/>
     <use transform="rotate(-56.25 368.99 599.01)" width="100%" height="100%" xlink:href="#a"/>
     <use transform="rotate(-45 368.99 599.01)" width="100%" height="100%" xlink:href="#a"/>
     <use transform="rotate(-33.75 368.99 599.01)" width="100%" height="100%" xlink:href="#a"/>
     <use transform="rotate(-22.5 368.99 599.01)" width="100%" height="100%" xlink:href="#a"/>
     <use transform="rotate(-11.25 368.99 599.01)" width="100%" height="100%" xlink:href="#a"/>
    </g>
   </g>
   <g transform="matrix(1.9385 0 0 1.9385 -984.39 -858.92)">
    <circle transform="matrix(0 -2.3861 2.3861 0 -39.034 1781)" cx="393.64" cy="289.71" r="23.024" color="#000000" fill="#2d1650"/>
    <g transform="translate(401.01 8.4017)" fill="#b4a0fb">
     <circle transform="matrix(1.1957 0 0 1.1957 -191.81 486.89)" cx="393.64" cy="289.71" r="23.024" color="#000000" opacity=".25"/>
     <circle transform="matrix(1.1957 0 0 1.1957 -247.13 486.89)" cx="393.64" cy="289.71" r="23.024" color="#000000" opacity=".25"/>
     <circle transform="matrix(1.1372 -.36951 .36951 1.1372 -277.18 640.75)" cx="393.64" cy="289.71" r="23.024" color="#000000" opacity=".25"/>
     <circle transform="matrix(1.1372 -.36951 .36951 1.1372 -329.79 657.85)" cx="393.64" cy="289.71" r="23.024" color="#000000" opacity=".25"/>
     <circle transform="matrix(.96738 -.70284 .70284 .96738 -310.82 813.47)" cx="393.64" cy="289.71" r="23.024" color="#000000" opacity=".25"/>
     <circle transform="matrix(.96738 -.70284 .70284 .96738 -355.57 845.98)" cx="393.64" cy="289.71" r="23.024" color="#000000" opacity=".25"/>
     <circle transform="matrix(.70284 -.96738 .96738 .70284 -289.45 988.12)" cx="393.64" cy="289.71" r="23.024" color="#000000" opacity=".25"/>
     <circle transform="matrix(.70284 -.96738 .96738 .70284 -321.96 1032.9)" cx="393.64" cy="289.71" r="23.024" color="#000000" opacity=".25"/>
     <circle transform="matrix(.36951 -1.1372 1.1372 .36951 -215.14 1147.6)" cx="393.64" cy="289.71" r="23.024" color="#000000" opacity=".25"/>
     <circle transform="matrix(.36951 -1.1372 1.1372 .36951 -232.24 1200.2)" cx="393.64" cy="289.71" r="23.024" color="#000000" opacity=".25"/>
     <circle transform="matrix(0 -1.1957 1.1957 0 -95.191 1276.4)" cx="393.64" cy="289.71" r="23.024" color="#000000" opacity=".25"/>
     <circle transform="matrix(0 -1.1957 1.1957 0 -95.191 1331.7)" cx="393.64" cy="289.71" r="23.024" color="#000000" opacity=".25"/>
     <circle transform="matrix(-.36951 -1.1372 1.1372 -.36951 58.673 1361.7)" cx="393.64" cy="289.71" r="23.024" color="#000000" opacity=".25"/>
     <circle transform="matrix(-.36951 -1.1372 1.1372 -.36951 75.765 1414.3)" cx="393.64" cy="289.71" r="23.024" color="#000000" opacity=".25"/>
     <circle transform="matrix(-.70284 -.96738 .96738 -.70284 231.38 1395.4)" cx="393.64" cy="289.71" r="23.024" color="#000000" opacity=".25"/>
     <circle transform="matrix(-.70284 -.96738 .96738 -.70284 263.9 1440.1)" cx="393.64" cy="289.71" r="23.024" color="#000000" opacity=".25"/>
     <circle transform="matrix(-.96738 -.70284 .70284 -.96738 406.04 1374)" cx="393.64" cy="289.71" r="23.024" color="#000000" opacity=".25"/>
     <circle transform="matrix(-.96738 -.70284 .70284 -.96738 450.79 1406.5)" cx="393.64" cy="289.71" r="23.024" color="#000000" opacity=".25"/>
     <circle transform="matrix(-1.1372 -.36951 .36951 -1.1372 565.54 1299.7)" cx="393.64" cy="289.71" r="23.024" color="#000000" opacity=".25"/>
     <circle transform="matrix(-1.1372 -.36951 .36951 -1.1372 618.14 1316.8)" cx="393.64" cy="289.71" r="23.024" color="#000000" opacity=".25"/>
    </g>
   </g>
   <circle transform="matrix(0 -2.3671 2.3671 0 -405.78 1704.2)" cx="393.64" cy="289.71" r="23.024" color="#000000" fill="none" filter="url(#l)" stroke="#fff" stroke-width=".38336"/>
   <circle transform="matrix(0 -2.3468 2.3468 0 -399.9 1696.2)" cx="393.64" cy="289.71" r="23.024" color="#000000" fill="#e6ea9a" stroke="#fff" stroke-width=".41815"/>
   <g transform="matrix(1.9385 0 0 1.9385 -661.16 -1187.2)" fill="#fff" filter="url(#i)" stroke="#fff" stroke-width=".5">
    <path d="m485.5 1011.1c1.646-0.9503 3.1625-2.0363 4.5312-3.25s2.5783-2.5421 3.6562-3.9687c0.58276-0.7713 1.0053-1.6466 1.5-2.4688-0.81849 0.493-1.6695 0.9197-2.4375 1.5-1.4267 1.078-2.7863 2.2875-4 3.6563-1.2137 1.3687-2.2997 2.8852-3.25 4.5312z" color="#000000"/>
    <path d="m485.5 1011.1c0.95032-1.646 2.0363-3.1625 3.25-4.5312 1.2137-1.3688 2.5733-2.5783 4-3.6563 0.76801-0.5803 1.619-1.007 2.4375-1.5 0.4204-0.6987 0.92583-1.3637 1.2812-2.0938 0.77369-1.5893 1.4191-3.2361 1.875-4.9375s0.75039-3.4556 0.875-5.2188c0.0403-0.57056-0.0672-1.1452-0.0625-1.7188-0.49163 0.28945-1.0286 0.49399-1.5 0.8125-1.4647 0.98951-2.8482 2.1295-4.0938 3.375s-2.3542 2.5978-3.3438 4.0625c-0.44302 0.65575-0.76991 1.3994-1.1562 2.0938-0.0154 0.98114 0.0593 1.9563-0.0625 2.9375-0.22019 1.7745-0.64025 3.5458-1.2188 5.2813-0.5785 1.7354-1.3309 3.4477-2.2812 5.0937z" color="#000000"/>
    <path d="m485.5 1011.1c0.95032-1.646 1.7028-3.3583 2.2812-5.0937 0.5785-1.7355 0.99856-3.5068 1.2188-5.2813 0.12175-0.98116 0.0471-1.9564 0.0625-2.9375-0.47658 0.8565-1.0215 1.6842-1.4062 2.5938-0.69658 1.6469-1.227 3.364-1.5938 5.1562s-0.5625 3.6619-0.5625 5.5625z" color="#000000"/>
    <path d="m485.5 1011.1c0-1.9006 0.19576-3.7703 0.5625-5.5625s0.89717-3.5093 1.5938-5.1562c0.38471-0.90961 0.92967-1.7373 1.4062-2.5938 0.0125-0.79336 0.11821-1.5867 0.0625-2.375-0.12461-1.7632-0.4191-3.4861-0.875-5.1875s-1.0701-3.3795-1.8438-4.9688c-0.25114-0.51589-0.62257-0.9682-0.90625-1.4688-0.28368 0.50055-0.65511 0.95286-0.90625 1.4688-0.77369 1.5893-1.3878 3.2673-1.8438 4.9688s-0.75039 3.4243-0.875 5.1875c-0.0557 0.78818 0.05 1.5818 0.0625 2.375 0.47817 0.85874 1.0205 1.6816 1.4062 2.5938 0.69658 1.6469 1.227 3.364 1.5938 5.1562s0.5625 3.6619 0.5625 5.5625z" color="#000000"/>
    <path d="m485.5 1011.1c0-1.9006-0.19576-3.7703-0.5625-5.5625s-0.89717-3.5093-1.5938-5.1562c-0.38579-0.91216-0.92808-1.7351-1.4062-2.5938 0.0154 0.98127-0.028 1.9562 0.0937 2.9375 0.22019 1.7745 0.609 3.5458 1.1875 5.2813 0.5785 1.7354 1.3309 3.4477 2.2812 5.0937z" color="#000000"/>
    <path d="m485.5 1011.1c-0.95032-1.646-1.7028-3.3583-2.2812-5.0937-0.5785-1.7355-0.96731-3.5068-1.1875-5.2813-0.12176-0.98129-0.0784-1.9562-0.0937-2.9375-0.38521-0.69179-0.68351-1.4403-1.125-2.0938-0.98951-1.4647-2.1295-2.817-3.375-4.0625s-2.5978-2.3855-4.0625-3.375c-0.47658-0.32197-1.0341-0.52022-1.5312-0.8125 5e-3 0.57335-0.0716 1.1484-0.0312 1.7188 0.12461 1.7632 0.4191 3.5173 0.875 5.2188s1.0701 3.3482 1.8438 4.9375c0.3492 0.71731 0.83806 1.3754 1.25 2.0626 0.83956 0.5027 1.7133 0.9368 2.5 1.5312 1.4267 1.078 2.755 2.2875 3.9688 3.6563 1.2137 1.3687 2.2997 2.8852 3.25 4.5312z" color="#000000"/>
    <path d="m485.5 1011.1c-0.95032-1.646-2.0363-3.1625-3.25-4.5312-1.2137-1.3688-2.542-2.5783-3.9688-3.6563-0.78669-0.5944-1.6604-1.0285-2.5-1.5312 0.50075 0.8351 0.93982 1.7172 1.5312 2.5 1.078 1.4266 2.2875 2.755 3.6562 3.9687s2.8852 2.2997 4.5312 3.25z" color="#000000"/>
    <path d="m485.5 1011.1c-1.646-0.9503-3.1625-2.0363-4.5312-3.25s-2.5783-2.5421-3.6562-3.9687c-0.59143-0.7828-1.0305-1.6649-1.5312-2.5-0.68302-0.4091-1.3183-0.903-2.0312-1.25-1.5893-0.77374-3.2673-1.3879-4.9688-1.8438s-3.4556-0.75039-5.2188-0.875c-0.57037-0.0403-1.1454 0.036-1.7188 0.0312 0.29379 0.50018 0.51992 1.0519 0.84375 1.5312 0.98951 1.4646 2.0982 2.817 3.3438 4.0626 1.2455 1.2455 2.6291 2.3854 4.0938 3.375 0.65687 0.4437 1.3982 0.7381 2.0938 1.125 0.97556 0.016 1.962-0.027 2.9375 0.094 1.7745 0.2202 3.5145 0.6089 5.25 1.1875 1.7355 0.5785 3.4478 1.3309 5.0938 2.2812z" color="#000000"/>
    <path d="m485.5 1011.1c-1.646-0.9503-3.3583-1.7027-5.0938-2.2812-1.7355-0.5786-3.4755-0.9674-5.25-1.1875-0.97555-0.1211-1.9619-0.078-2.9375-0.094 0.85539 0.4759 1.6542 1.0221 2.5625 1.4063 1.6469 0.6966 3.3953 1.227 5.1875 1.5937 1.7922 0.3668 3.6306 0.5625 5.5312 0.5625z" color="#000000"/>
    <path d="m485.5 1011.1c-1.9006 0-3.739-0.1958-5.5312-0.5625s-3.5406-0.8972-5.1875-1.5937c-0.90831-0.3842-1.7071-0.9305-2.5625-1.4063-0.79899-0.013-1.6124-0.1186-2.4062-0.062-1.7632 0.1246-3.4861 0.4191-5.1875 0.875s-3.3795 1.0701-4.9688 1.8438c-0.51589 0.2511-0.9682 0.6225-1.4688 0.9062 0.50055 0.2837 0.95286 0.6551 1.4688 0.9063 1.5893 0.7736 3.2673 1.3878 4.9688 1.8437s3.4243 0.7504 5.1875 0.875c0.7837 0.055 1.5863-0.051 2.375-0.062 0.8629-0.4811 1.6769-1.0185 2.5938-1.4062 1.6469-0.6966 3.3953-1.2271 5.1875-1.5938s3.6306-0.5625 5.5312-0.5625z" color="#000000"/>
    <path d="m485.5 1011.1c-1.9006 0-3.739 0.1958-5.5312 0.5625s-3.5406 0.8972-5.1875 1.5938c-0.91684 0.3877-1.7308 0.9251-2.5938 1.4062 0.98576-0.015 1.983 0.06 2.9688-0.062 1.7745-0.2202 3.5145-0.6403 5.25-1.2187 1.7355-0.5785 3.4478-1.331 5.0938-2.2813z" color="#000000"/>
    <path d="m485.5 1011.1c-1.646 0.9503-3.3583 1.7028-5.0938 2.2813-1.7355 0.5784-3.4755 0.9985-5.25 1.2187-0.9858 0.1223-1.983 0.048-2.9688 0.062-0.68711 0.3831-1.4132 0.6863-2.0625 1.125-1.4647 0.9895-2.8482 2.1295-4.0938 3.375s-2.3542 2.5978-3.3438 4.0625c-0.32383 0.4793-0.54996 1.0311-0.84375 1.5313 0.57335-0.01 1.1484 0.072 1.7188 0.031 1.7632-0.1247 3.5173-0.3879 5.2188-0.8438s3.3795-1.1013 4.9688-1.875c0.71294-0.3471 1.3482-0.8409 2.0312-1.25 0.50075-0.8351 0.93982-1.7172 1.5312-2.5 1.078-1.4267 2.2875-2.755 3.6562-3.9687 1.3687-1.2138 2.8852-2.2997 4.5312-3.25z" color="#000000"/>
    <path d="m485.5 1011.1c-1.646 0.9503-3.1625 2.0363-4.5312 3.25s-2.5783 2.5421-3.6562 3.9688c-0.59143 0.7827-1.0305 1.6648-1.5312 2.5 0.83956-0.5029 1.7133-0.9369 2.5-1.5313 1.4267-1.078 2.755-2.2875 3.9688-3.6562 1.2137-1.3688 2.2997-2.8853 3.25-4.5313z" color="#000000"/>
    <path d="m485.5 1011.1c-0.95032 1.646-2.0363 3.1625-3.25 4.5313-1.2137 1.3687-2.542 2.5782-3.9688 3.6562-0.78669 0.5944-1.6604 1.0284-2.5 1.5313-0.41194 0.687-0.9008 1.3451-1.25 2.0625-0.77369 1.5892-1.3878 3.236-1.8438 4.9375-0.4559 1.7014-0.75039 3.4555-0.875 5.2187-0.0403 0.5704 0.036 1.1454 0.0312 1.7188 0.49719-0.2923 1.0547-0.4906 1.5312-0.8125 1.4647-0.9896 2.817-2.1295 4.0625-3.375 1.2455-1.2456 2.3855-2.5979 3.375-4.0625 0.44149-0.6535 0.73979-1.402 1.125-2.0938 0.0154-0.9813-0.028-1.9562 0.0937-2.9375 0.22019-1.7745 0.609-3.5458 1.1875-5.2812 0.5785-1.7355 1.3309-3.4478 2.2812-5.0938z" color="#000000"/>
    <path d="m485.5 1011.1c-0.95032 1.646-1.7028 3.3583-2.2812 5.0938-0.5785 1.7354-0.96731 3.5067-1.1875 5.2812-0.12176 0.9813-0.0784 1.9562-0.0937 2.9375 0.47817-0.8587 1.0205-1.6816 1.4062-2.5937 0.69658-1.6469 1.227-3.3641 1.5938-5.1563s0.5625-3.6619 0.5625-5.5625z" color="#000000"/>
    <path d="m485.5 1011.1c0 1.9006-0.19576 3.7703-0.5625 5.5625s-0.89717 3.5094-1.5938 5.1563c-0.38579 0.9121-0.92808 1.735-1.4062 2.5937-0.0125 0.7932-0.1182 1.5868-0.0625 2.375 0.12461 1.7632 0.4191 3.5173 0.875 5.2188 0.4559 1.7014 1.0701 3.3482 1.8438 4.9375 0.25114 0.5158 0.62257 0.9682 0.90625 1.4687 0.28368-0.5005 0.65511-0.9529 0.90625-1.4687 0.77369-1.5893 1.3878-3.2361 1.8438-4.9375 0.4559-1.7015 0.75039-3.4556 0.875-5.2188 0.0557-0.7883-0.05-1.5816-0.0625-2.375-0.47658-0.8565-1.0215-1.6842-1.4062-2.5937-0.69658-1.6469-1.227-3.3641-1.5938-5.1563s-0.5625-3.6619-0.5625-5.5625z" color="#000000"/>
    <path d="m485.5 1011.1c0 1.9006 0.19576 3.7703 0.5625 5.5625s0.89717 3.5094 1.5938 5.1563c0.38471 0.9095 0.92967 1.7372 1.4062 2.5937-0.0154-0.9811 0.0593-1.9563-0.0625-2.9375-0.22019-1.7745-0.64025-3.5458-1.2188-5.2812-0.5785-1.7355-1.3309-3.4478-2.2812-5.0938z" color="#000000"/>
    <path d="m485.5 1011.1c0.95032 1.646 1.7028 3.3583 2.2812 5.0938 0.5785 1.7354 0.99856 3.5067 1.2188 5.2812 0.12175 0.9812 0.0471 1.9564 0.0625 2.9375 0.38634 0.6943 0.71323 1.438 1.1562 2.0938 0.98951 1.4646 2.0982 2.8169 3.3438 4.0625 1.2455 1.2455 2.6291 2.3854 4.0938 3.375 0.47145 0.3185 1.0084 0.523 1.5 0.8125-5e-3 -0.5736 0.10282-1.1482 0.0625-1.7188-0.12461-1.7632-0.4191-3.5173-0.875-5.2187-0.4559-1.7015-1.1013-3.3483-1.875-4.9375-0.35542-0.7301-0.86085-1.3951-1.2812-2.0938-0.81849-0.493-1.6695-0.9197-2.4375-1.5-1.4267-1.078-2.7863-2.2875-4-3.6562-1.2137-1.3688-2.2997-2.8853-3.25-4.5313z" color="#000000"/>
    <path d="m485.5 1011.1c0.95032 1.646 2.0363 3.1625 3.25 4.5313 1.2137 1.3687 2.5733 2.5782 4 3.6562 0.76801 0.5803 1.619 1.007 2.4375 1.5-0.49474-0.8222-0.91724-1.6974-1.5-2.4687-1.078-1.4267-2.2875-2.7551-3.6562-3.9688s-2.8852-2.2997-4.5312-3.25z" color="#000000"/>
    <path d="m485.5 1011.1c1.646 0.9503 3.1625 2.0363 4.5312 3.25s2.5783 2.5421 3.6562 3.9688c0.58276 0.7713 1.0053 1.6465 1.5 2.4687 0.70199 0.4228 1.36 0.924 2.0938 1.2813 1.5893 0.7736 3.2361 1.419 4.9375 1.875 1.7014 0.4559 3.4556 0.7191 5.2188 0.8437 0.57037 0.04 1.1454-0.036 1.7188-0.031-0.29228-0.4972-0.49053-1.0547-0.8125-1.5313-0.98951-1.4646-2.1295-2.8169-3.375-4.0625-1.2455-1.2455-2.5978-2.3854-4.0625-3.375-0.64592-0.4363-1.3791-0.7435-2.0625-1.125-0.99153-0.014-1.9772 0.061-2.9688-0.062-1.7745-0.2201-3.5458-0.6402-5.2812-1.2187s-3.4478-1.3309-5.0938-2.2813z" color="#000000"/>
    <path d="m485.5 1011.1c1.646 0.9503 3.3583 1.7028 5.0938 2.2813 1.7355 0.5784 3.5067 0.9985 5.2812 1.2187 0.9916 0.123 1.9772 0.048 2.9688 0.062-0.86621-0.4835-1.7044-1.0169-2.625-1.4062-1.6469-0.6966-3.364-1.2271-5.1562-1.5938s-3.6619-0.5625-5.5625-0.5625z" color="#000000"/>
    <path d="m498.81 1007.5c-0.98127 0.015-1.9562-0.028-2.9375 0.094-1.7745 0.2202-3.5458 0.609-5.2812 1.1875s-3.4478 1.3309-5.0938 2.2813c1.9006 0 3.7703-0.1958 5.5625-0.5625 1.7922-0.3668 3.5094-0.8972 5.1562-1.5938 0.91211-0.3858 1.735-0.9281 2.5938-1.4062z" color="#000000"/>
    <path d="m498.81 1007.5c-0.85874 0.4782-1.6816 1.0205-2.5938 1.4063-1.6469 0.6965-3.364 1.227-5.1562 1.5937s-3.6619 0.5625-5.5625 0.5625c1.9006 0 3.7703 0.1958 5.5625 0.5625s3.5094 0.8972 5.1562 1.5938c0.92061 0.3893 1.7588 0.9227 2.625 1.4062 0.78289 0.011 1.5658 0.1175 2.3438 0.062 1.7632-0.1246 3.5173-0.4191 5.2188-0.875s3.3482-1.0701 4.9375-1.8437c0.51589-0.2512 0.9682-0.6226 1.4688-0.9063-0.50055-0.2837-0.95286-0.6551-1.4688-0.9062-1.5893-0.7737-3.2361-1.3879-4.9375-1.8438s-3.4556-0.7504-5.2188-0.875c-0.78818-0.056-1.5818 0.05-2.375 0.062z" color="#000000"/>
    <path d="m509.16 997.39c-0.57335 5e-3 -1.1484-0.0716-1.7188-0.0312-1.7632 0.12461-3.5173 0.4191-5.2188 0.875s-3.3482 1.0701-4.9375 1.8438c-0.73375 0.3572-1.3918 0.8584-2.0938 1.2812-0.49474 0.8223-0.91724 1.6975-1.5 2.4688-1.078 1.4267-2.2875 2.755-3.6562 3.9687-1.3687 1.2138-2.8852 2.2997-4.5312 3.25 1.646-0.9503 3.3583-1.7027 5.0938-2.2812s3.5067-0.9673 5.2812-1.1875c0.98129-0.1218 1.9562-0.078 2.9375-0.094 0.69179-0.3852 1.4403-0.6835 2.0938-1.125 1.4647-0.9895 2.817-2.1295 4.0625-3.375s2.3855-2.5978 3.375-4.0625c0.32197-0.47658 0.52022-1.0341 0.8125-1.5312z" color="#000000"/>
   </g>
   <g transform="translate(43.808 -221.56)">
    <g transform="matrix(1.9374 0 0 1.9408 -281.17 -949.02)" stroke="#fff" stroke-width=".5">
     <path d="m267.05 1001.1c0.95032-1.6461 2.0363-3.1626 3.25-4.5313s2.542-2.5783 3.9688-3.6562c0.78669-0.59445 1.6604-1.0285 2.5-1.5313 0.41194-0.68701 0.9008-1.3452 1.25-2.0625 0.77369-1.5893 1.3878-3.2361 1.8438-4.9375s0.75039-3.4556 0.875-5.2188c0.0396-0.5602-0.0678-1.1244-0.0625-1.6875-0.48757 0.28739-1.0323 0.49652-1.5 0.8125-1.4647 0.98952-2.817 2.0982-4.0625 3.3438s-2.3855 2.5978-3.375 4.0625c-0.44935 0.66513-0.76523 1.4202-1.1562 2.125-0.0164 0.97075 0.058 1.9355-0.0625 2.9062-0.22019 1.7745-0.609 3.5458-1.1875 5.2812s-1.3309 3.4477-2.2812 5.0938z" color="#000000" fill="#8be7f9"/>
     <path d="m267.05 1001.1c0-1.9007 0.16451-3.7391 0.53125-5.5313s0.92842-3.5406 1.625-5.1875c0.38025-0.89902 0.90496-1.7153 1.375-2.5625 0.0135-0.80383 0.11894-1.6076 0.0625-2.4062-0.12461-1.7632-0.38785-3.4861-0.84375-5.1875s-1.1013-3.3795-1.875-4.9688c-0.24727-0.50792-0.62744-0.94443-0.90625-1.4375-0.27583 0.48848-0.63011 0.93446-0.875 1.4375-0.77369 1.5893-1.3878 3.2673-1.8438 4.9688s-0.75039 3.4243-0.875 5.1875c-0.0564 0.79867 0.049 1.6024 0.0625 2.4062 0.47004 0.84722 0.99475 1.6635 1.375 2.5625 0.69658 1.6469 1.2583 3.3953 1.625 5.1875s0.5625 3.6306 0.5625 5.5313z" color="#000000" fill="#8be7f9"/>
     <path d="m267.05 1001.1c-0.95032-1.6461-1.734-3.3583-2.3125-5.0938s-0.96731-3.5067-1.1875-5.2812c-0.12045-0.97073-0.0461-1.9355-0.0625-2.9062-0.39102-0.70478-0.7069-1.4599-1.1562-2.125-0.98951-1.4647-2.1295-2.817-3.375-4.0625s-2.5978-2.3542-4.0625-3.3438c-0.46771-0.31598-1.0124-0.52511-1.5-0.8125 5e-3 0.56308-0.10209 1.1273-0.0625 1.6875 0.12461 1.7632 0.4191 3.5173 0.875 5.2188s1.0701 3.3482 1.8438 4.9375c0.3492 0.71731 0.83806 1.3755 1.25 2.0625 0.83956 0.5028 1.7133 0.93685 2.5 1.5313 1.4267 1.0779 2.755 2.2875 3.9688 3.6562s2.3309 2.8852 3.2812 4.5313z" color="#000000" fill="#8be7f9"/>
     <path d="m267.05 1001.1c-1.646-0.9504-3.1625-2.0363-4.5312-3.25-1.3687-1.2138-2.6095-2.5421-3.6875-3.9688-0.59143-0.7828-1.0305-1.6649-1.5312-2.5-0.68302-0.40905-1.3183-0.90293-2.0312-1.25-1.5893-0.77369-3.2361-1.3878-4.9375-1.8438s-3.4556-0.75039-5.2188-0.875c-0.57037-0.0403-1.1454 0.036-1.7188 0.0312 0.29228 0.49719 0.49053 1.0547 0.8125 1.5312 0.98951 1.4647 2.1295 2.817 3.375 4.0625s2.5978 2.3855 4.0625 3.375c0.65348 0.4415 1.402 0.7398 2.0938 1.125 0.98127 0.015 1.9562-0.028 2.9375 0.094 1.7745 0.2202 3.5458 0.609 5.2812 1.1875s3.4478 1.3309 5.0938 2.2813z" color="#000000" fill="#8be7f9"/>
     <path d="m267.05 1001.1c-1.9006 0-3.7703-0.1958-5.5625-0.5625-1.7922-0.3668-3.5094-0.89717-5.1562-1.5938-0.91211-0.3858-1.735-0.9281-2.5938-1.4062-0.79323-0.013-1.5868-0.1182-2.375-0.062-1.7632 0.1246-3.5173 0.419-5.2188 0.875-1.7014 0.4559-3.3482 1.07-4.9375 1.8437-0.52124 0.2537-0.99442 0.6193-1.5 0.9063 0.50558 0.2869 0.97876 0.6525 1.5 0.9062 1.5893 0.7737 3.2361 1.3878 4.9375 1.8438 1.7014 0.4559 3.4556 0.7503 5.2188 0.875 0.7883 0.056 1.5816-0.05 2.375-0.062 0.85649-0.4766 1.6842-1.0216 2.5938-1.4063 1.6469-0.6966 3.364-1.227 5.1562-1.5937 1.7922-0.3668 3.6619-0.5625 5.5625-0.5625z" color="#000000" fill="#8be7f9"/>
     <path d="m267.05 1001.1c-1.646 0.9503-3.3583 1.7027-5.0938 2.2812s-3.5067 0.9986-5.2812 1.2188c-0.98116 0.1217-1.9564 0.047-2.9375 0.062-0.69432 0.3863-1.438 0.7132-2.0938 1.1562-1.4647 0.9895-2.817 2.0982-4.0625 3.3438-1.2455 1.2455-2.3855 2.5978-3.375 4.0625-0.32473 0.4806-0.54923 1.0296-0.84375 1.5312 0.58399 0 1.1691 0.1035 1.75 0.062 1.7632-0.1246 3.5173-0.4191 5.2188-0.875s3.3482-1.1013 4.9375-1.875c0.71294-0.3471 1.3482-0.8409 2.0312-1.25 0.50075-0.8351 0.93982-1.7172 1.5312-2.5 1.078-1.4267 2.3188-2.755 3.6875-3.9687 1.3687-1.2138 2.8852-2.2997 4.5312-3.25z" color="#000000" fill="#8be7f9"/>
     <path d="m267.05 1001.1c-0.95032 1.646-2.0675 3.1625-3.2812 4.5312s-2.542 2.5783-3.9688 3.6563c-0.78669 0.5944-1.6604 1.0284-2.5 1.5312-0.41194 0.687-0.9008 1.3452-1.25 2.0625-0.77369 1.5893-1.3878 3.2361-1.8438 4.9375s-0.75039 3.4556-0.875 5.2188c-0.0403 0.5705 0.0672 1.1452 0.0625 1.7187 0.48899-0.2881 1.031-0.4956 1.5-0.8125 1.4647-0.9895 2.817-2.1294 4.0625-3.375 1.2455-1.2455 2.3855-2.5978 3.375-4.0625 0.44935-0.6651 0.76523-1.4202 1.1562-2.125 0.0164-0.9708-0.058-1.9355 0.0625-2.9062 0.22019-1.7746 0.609-3.5458 1.1875-5.2813s1.3622-3.4477 2.3125-5.0937z" color="#000000" fill="#8be7f9"/>
     <path d="m267.05 1001.1c0 1.9006-0.19576 3.7702-0.5625 5.5625-0.36674 1.7922-0.92842 3.5093-1.625 5.1562-0.38025 0.899-0.90496 1.7153-1.375 2.5625-0.0136 0.8038-0.11894 1.6076-0.0625 2.4063 0.12461 1.7632 0.38785 3.5173 0.84375 5.2187 0.4559 1.7015 1.1013 3.3482 1.875 4.9375 0.24489 0.503 0.59917 0.949 0.875 1.4375 0.27881-0.4931 0.65898-0.9296 0.90625-1.4375 0.77369-1.5893 1.4191-3.236 1.875-4.9375 0.4559-1.7014 0.71914-3.4555 0.84375-5.2187 0.0564-0.7987-0.049-1.6025-0.0625-2.4063-0.47004-0.8472-0.99475-1.6635-1.375-2.5625-0.69658-1.6469-1.2583-3.364-1.625-5.1562-0.36674-1.7923-0.53125-3.6619-0.53125-5.5625z" color="#000000" fill="#8be7f9"/>
     <path d="m267.05 1001.1c0.95032 1.646 1.7028 3.3582 2.2812 5.0937s0.96731 3.5067 1.1875 5.2813c0.12045 0.9707 0.0461 1.9354 0.0625 2.9062 0.39102 0.7048 0.7069 1.4599 1.1562 2.125 0.98951 1.4647 2.1295 2.817 3.375 4.0625 1.2455 1.2456 2.5978 2.3855 4.0625 3.375 0.46902 0.3169 1.011 0.5244 1.5 0.8125-5e-3 -0.5735 0.10282-1.1482 0.0625-1.7187-0.12461-1.7632-0.4191-3.5174-0.875-5.2188s-1.0701-3.3482-1.8438-4.9375c-0.3492-0.7173-0.83806-1.3755-1.25-2.0625-0.83956-0.5028-1.7133-0.9368-2.5-1.5312-1.4267-1.078-2.755-2.2876-3.9688-3.6563s-2.2997-2.8852-3.25-4.5312z" color="#000000" fill="#8be7f9"/>
     <path d="m267.05 1001.1c1.646 0.9503 3.1313 2.0362 4.5 3.25 1.3687 1.2137 2.6095 2.542 3.6875 3.9687 0.59143 0.7828 1.0305 1.6649 1.5312 2.5 0.68302 0.409 1.3183 0.9029 2.0312 1.25 1.5893 0.7737 3.2361 1.4191 4.9375 1.875s3.4556 0.7504 5.2188 0.875c0.58093 0.041 1.166-0.067 1.75-0.062-0.29452-0.5016-0.51902-1.0506-0.84375-1.5312-0.98951-1.4647-2.1295-2.817-3.375-4.0625-1.2455-1.2456-2.5978-2.3543-4.0625-3.3438-0.65575-0.443-1.3994-0.7699-2.0938-1.1562-0.98114-0.015-1.9563 0.059-2.9375-0.062-1.7745-0.2202-3.5458-0.6403-5.2812-1.2188s-3.4165-1.3309-5.0625-2.2812z" color="#000000" fill="#8be7f9"/>
     <path d="m280.33 997.56c-0.85874 0.4781-1.6816 1.0204-2.5938 1.4062-1.6469 0.6966-3.364 1.227-5.1562 1.5938-1.7922 0.3667-3.6306 0.5625-5.5312 0.5625 1.9006 0 3.739 0.1957 5.5312 0.5625 1.7922 0.3667 3.5094 0.8971 5.1562 1.5937 0.90956 0.3847 1.7373 0.9297 2.5938 1.4063 0.79336 0.012 1.5867 0.1182 2.375 0.062 1.7632-0.1247 3.5173-0.4191 5.2188-0.875 1.7014-0.456 3.3482-1.0701 4.9375-1.8438 0.52124-0.2537 0.99442-0.6193 1.5-0.9062-0.50558-0.287-0.97876-0.6526-1.5-0.9063-1.5893-0.77367-3.2361-1.3878-4.9375-1.8437-1.7014-0.456-3.4556-0.7504-5.2188-0.875-0.78818-0.056-1.5818 0.05-2.375 0.062z" color="#000000" fill="#8be7f9"/>
     <path d="m290.68 987.47c-0.57335 5e-3 -1.1484-0.0716-1.7188-0.0312-1.7632 0.12461-3.5173 0.4191-5.2188 0.875s-3.3482 1.0701-4.9375 1.8438c-0.71294 0.34707-1.3482 0.84095-2.0312 1.25-0.50075 0.83513-0.93982 1.7172-1.5312 2.5-1.078 1.4267-2.3188 2.7551-3.6875 3.9688s-2.854 2.2997-4.5 3.25c1.646-0.9503 3.327-1.7027 5.0625-2.2813 1.7355-0.5785 3.5067-0.9673 5.2812-1.1875 0.98129-0.1217 1.9562-0.078 2.9375-0.094 0.69179-0.3852 1.4403-0.6835 2.0938-1.125 1.4647-0.9895 2.817-2.1294 4.0625-3.375 1.2455-1.2455 2.3855-2.5978 3.375-4.0624 0.32197-0.47658 0.8125-1.531 0.8125-1.531z" color="#000000" fill="#8be7f9"/>
     <path d="m267.05 1001.1c1.646-0.9504 3.1313-2.0363 4.5-3.25 1.3687-1.2138 2.6095-2.5421 3.6875-3.9688 0.59143-0.7828 1.0305-1.6649 1.5312-2.5-0.83956 0.5028-1.7133 0.93685-2.5 1.5313-1.4267 1.0779-2.755 2.2875-3.9688 3.6562s-2.2997 2.8852-3.25 4.5313z" color="#000000" fill="#6bd0e3"/>
     <path d="m267.05 1001.1c0.95032-1.6461 1.7028-3.3583 2.2812-5.0938s0.96731-3.5067 1.1875-5.2812c0.12045-0.97073 0.0461-1.9355 0.0625-2.9062-0.47004 0.84722-0.99475 1.6635-1.375 2.5625-0.69658 1.6469-1.2583 3.3953-1.625 5.1875s-0.53125 3.6306-0.53125 5.5313z" color="#000000" fill="#6bd0e3"/>
     <path d="m267.05 1001.1c0-1.9007-0.19576-3.7391-0.5625-5.5313s-0.92842-3.5406-1.625-5.1875c-0.38025-0.89902-0.90496-1.7153-1.375-2.5625 0.0164 0.97076-0.058 1.9355 0.0625 2.9062 0.22019 1.7746 0.609 3.5458 1.1875 5.2812s1.3622 3.4477 2.3125 5.0938z" color="#000000" fill="#6bd0e3"/>
     <path d="m267.05 1001.1c-0.95032-1.6461-2.0675-3.1626-3.2812-4.5313s-2.542-2.5783-3.9688-3.6562c-0.78669-0.59445-1.6604-1.0285-2.5-1.5313 0.50075 0.83513 0.93982 1.7172 1.5312 2.5 1.078 1.4267 2.3188 2.755 3.6875 3.9688 1.3687 1.2137 2.8852 2.2996 4.5312 3.25z" color="#000000" fill="#6bd0e3"/>
     <path d="m267.05 1001.1c-1.646-0.9504-3.3583-1.7028-5.0938-2.2813s-3.5067-0.9673-5.2812-1.1875c-0.98129-0.1218-1.9562-0.078-2.9375-0.094 0.85874 0.4782 1.6816 1.0205 2.5938 1.4062 1.6469 0.6966 3.364 1.2271 5.1562 1.5938s3.6619 0.5625 5.5625 0.5625z" color="#000000" fill="#6bd0e3"/>
     <path d="m267.05 1001.1c-1.9006 0-3.7703 0.1957-5.5625 0.5625-1.7922 0.3667-3.5094 0.8971-5.1562 1.5937-0.90956 0.3847-1.7373 0.9297-2.5938 1.4063 0.98114-0.015 1.9563 0.059 2.9375-0.062 1.7745-0.2202 3.5458-0.6403 5.2812-1.2188s3.4478-1.3309 5.0938-2.2812z" color="#000000" fill="#6bd0e3"/>
     <path d="m267.05 1001.1c-1.646 0.9503-3.1625 2.0362-4.5312 3.25-1.3687 1.2137-2.6095 2.542-3.6875 3.9687-0.59143 0.7828-1.0305 1.6649-1.5312 2.5 0.83956-0.5028 1.7133-0.9368 2.5-1.5312 1.4267-1.078 2.755-2.2876 3.9688-3.6563s2.3309-2.8852 3.2812-4.5312z" color="#000000" fill="#6bd0e3"/>
     <path d="m267.05 1001.1c-0.95032 1.646-1.734 3.3582-2.3125 5.0937s-0.96731 3.5067-1.1875 5.2813c-0.12045 0.9707-0.0461 1.9354-0.0625 2.9062 0.47004-0.8472 0.99475-1.6635 1.375-2.5625 0.69658-1.6469 1.2583-3.364 1.625-5.1562 0.36674-1.7923 0.5625-3.6619 0.5625-5.5625z" color="#000000" fill="#6bd0e3"/>
     <path d="m267.05 1001.1c0 1.9006 0.16451 3.7702 0.53125 5.5625 0.36674 1.7922 0.92842 3.5093 1.625 5.1562 0.38025 0.899 0.90496 1.7153 1.375 2.5625-0.0164-0.9708 0.058-1.9355-0.0625-2.9062-0.22019-1.7746-0.609-3.5458-1.1875-5.2813s-1.3309-3.4477-2.2812-5.0937z" color="#000000" fill="#6bd0e3"/>
     <path d="m267.05 1001.1c0.95032 1.646 2.0363 3.1625 3.25 4.5312s2.542 2.5783 3.9688 3.6563c0.78669 0.5944 1.6604 1.0284 2.5 1.5312-0.50075-0.8351-0.93982-1.7172-1.5312-2.5-1.078-1.4267-2.3188-2.755-3.6875-3.9687-1.3687-1.2138-2.854-2.2997-4.5-3.25z" color="#000000" fill="#6bd0e3"/>
     <path d="m267.05 1001.1c1.646 0.9503 3.327 1.7027 5.0625 2.2812s3.5067 0.9986 5.2812 1.2188c0.98116 0.1217 1.9564 0.047 2.9375 0.062-0.85649-0.4766-1.6842-1.0216-2.5938-1.4063-1.6469-0.6966-3.364-1.227-5.1562-1.5937-1.7922-0.3668-3.6306-0.5625-5.5312-0.5625z" color="#000000" fill="#6bd0e3"/>
     <path d="m280.33 997.56c-0.98127 0.015-1.9562-0.028-2.9375 0.094-1.7745 0.2201-3.5458 0.6089-5.2812 1.1875-1.7355 0.5785-3.4165 1.3309-5.0625 2.2812 1.9006 0 3.739-0.1958 5.5312-0.5625s3.5094-0.89717 5.1562-1.5937c0.91211-0.3858 1.735-0.9281 2.5938-1.4063z" color="#000000" fill="#6bd0e3"/>
    </g>
    <g transform="matrix(1.9374 0 0 1.9408 -281.17 -949.02)">
     <path d="m267.05 1001.1c0.95032-1.6461 2.0363-3.1626 3.25-4.5313s2.542-2.5783 3.9688-3.6562c0.78669-0.59445 1.6604-1.0285 2.5-1.5313 0.41194-0.68701 0.9008-1.3452 1.25-2.0625 0.77369-1.5893 1.3878-3.2361 1.8438-4.9375s0.75039-3.4556 0.875-5.2188c0.0396-0.5602-0.0678-1.1244-0.0625-1.6875-0.48757 0.28739-1.0323 0.49652-1.5 0.8125-1.4647 0.98952-2.817 2.0982-4.0625 3.3438s-2.3855 2.5978-3.375 4.0625c-0.44935 0.66513-0.76523 1.4202-1.1562 2.125-0.0164 0.97075 0.058 1.9355-0.0625 2.9062-0.22019 1.7745-0.609 3.5458-1.1875 5.2812s-1.3309 3.4477-2.2812 5.0938z" color="#000000" fill="#8be7f9"/>
     <path d="m267.05 1001.1c0-1.9007 0.16451-3.7391 0.53125-5.5313s0.92842-3.5406 1.625-5.1875c0.38025-0.89902 0.90496-1.7153 1.375-2.5625 0.0135-0.80383 0.11894-1.6076 0.0625-2.4062-0.12461-1.7632-0.38785-3.4861-0.84375-5.1875s-1.1013-3.3795-1.875-4.9688c-0.24727-0.50792-0.62744-0.94443-0.90625-1.4375-0.27583 0.48848-0.63011 0.93446-0.875 1.4375-0.77369 1.5893-1.3878 3.2673-1.8438 4.9688s-0.75039 3.4243-0.875 5.1875c-0.0564 0.79867 0.049 1.6024 0.0625 2.4062 0.47004 0.84722 0.99475 1.6635 1.375 2.5625 0.69658 1.6469 1.2583 3.3953 1.625 5.1875s0.5625 3.6306 0.5625 5.5313z" color="#000000" fill="#8be7f9"/>
     <path d="m267.05 1001.1c-0.95032-1.6461-1.734-3.3583-2.3125-5.0938s-0.96731-3.5067-1.1875-5.2812c-0.12045-0.97073-0.0461-1.9355-0.0625-2.9062-0.39102-0.70478-0.7069-1.4599-1.1562-2.125-0.98951-1.4647-2.1295-2.817-3.375-4.0625s-2.5978-2.3542-4.0625-3.3438c-0.46771-0.31598-1.0124-0.52511-1.5-0.8125 5e-3 0.56308-0.10209 1.1273-0.0625 1.6875 0.12461 1.7632 0.4191 3.5173 0.875 5.2188s1.0701 3.3482 1.8438 4.9375c0.3492 0.71731 0.83806 1.3755 1.25 2.0625 0.83956 0.5028 1.7133 0.93685 2.5 1.5313 1.4267 1.0779 2.755 2.2875 3.9688 3.6562s2.3309 2.8852 3.2812 4.5313z" color="#000000" fill="#8be7f9"/>
     <path d="m267.05 1001.1c-1.646-0.9504-3.1625-2.0363-4.5312-3.25-1.3687-1.2138-2.6095-2.5421-3.6875-3.9688-0.59143-0.7828-1.0305-1.6649-1.5312-2.5-0.68302-0.40905-1.3183-0.90293-2.0312-1.25-1.5893-0.77369-3.2361-1.3878-4.9375-1.8438s-3.4556-0.75039-5.2188-0.875c-0.57037-0.0403-1.1454 0.036-1.7188 0.0312 0.29228 0.49719 0.49053 1.0547 0.8125 1.5312 0.98951 1.4647 2.1295 2.817 3.375 4.0625s2.5978 2.3855 4.0625 3.375c0.65348 0.4415 1.402 0.7398 2.0938 1.125 0.98127 0.015 1.9562-0.028 2.9375 0.094 1.7745 0.2202 3.5458 0.609 5.2812 1.1875s3.4478 1.3309 5.0938 2.2813z" color="#000000" fill="#8be7f9"/>
     <path d="m267.05 1001.1c-1.9006 0-3.7703-0.1958-5.5625-0.5625-1.7922-0.3668-3.5094-0.89717-5.1562-1.5938-0.91211-0.3858-1.735-0.9281-2.5938-1.4062-0.79323-0.013-1.5868-0.1182-2.375-0.062-1.7632 0.1246-3.5173 0.419-5.2188 0.875-1.7014 0.4559-3.3482 1.07-4.9375 1.8437-0.52124 0.2537-0.99442 0.6193-1.5 0.9063 0.50558 0.2869 0.97876 0.6525 1.5 0.9062 1.5893 0.7737 3.2361 1.3878 4.9375 1.8438 1.7014 0.4559 3.4556 0.7503 5.2188 0.875 0.7883 0.056 1.5816-0.05 2.375-0.062 0.85649-0.4766 1.6842-1.0216 2.5938-1.4063 1.6469-0.6966 3.364-1.227 5.1562-1.5937 1.7922-0.3668 3.6619-0.5625 5.5625-0.5625z" color="#000000" fill="#8be7f9"/>
     <path d="m267.05 1001.1c-1.646 0.9503-3.3583 1.7027-5.0938 2.2812s-3.5067 0.9986-5.2812 1.2188c-0.98116 0.1217-1.9564 0.047-2.9375 0.062-0.69432 0.3863-1.438 0.7132-2.0938 1.1562-1.4647 0.9895-2.817 2.0982-4.0625 3.3438-1.2455 1.2455-2.3855 2.5978-3.375 4.0625-0.32473 0.4806-0.54923 1.0296-0.84375 1.5312 0.58399 0 1.1691 0.1035 1.75 0.062 1.7632-0.1246 3.5173-0.4191 5.2188-0.875s3.3482-1.1013 4.9375-1.875c0.71294-0.3471 1.3482-0.8409 2.0312-1.25 0.50075-0.8351 0.93982-1.7172 1.5312-2.5 1.078-1.4267 2.3188-2.755 3.6875-3.9687 1.3687-1.2138 2.8852-2.2997 4.5312-3.25z" color="#000000" fill="#8be7f9"/>
     <path d="m267.05 1001.1c-0.95032 1.646-2.0675 3.1625-3.2812 4.5312s-2.542 2.5783-3.9688 3.6563c-0.78669 0.5944-1.6604 1.0284-2.5 1.5312-0.41194 0.687-0.9008 1.3452-1.25 2.0625-0.77369 1.5893-1.3878 3.2361-1.8438 4.9375s-0.75039 3.4556-0.875 5.2188c-0.0403 0.5705 0.0672 1.1452 0.0625 1.7187 0.48899-0.2881 1.031-0.4956 1.5-0.8125 1.4647-0.9895 2.817-2.1294 4.0625-3.375 1.2455-1.2455 2.3855-2.5978 3.375-4.0625 0.44935-0.6651 0.76523-1.4202 1.1562-2.125 0.0164-0.9708-0.058-1.9355 0.0625-2.9062 0.22019-1.7746 0.609-3.5458 1.1875-5.2813s1.3622-3.4477 2.3125-5.0937z" color="#000000" fill="#8be7f9"/>
     <path d="m267.05 1001.1c0 1.9006-0.19576 3.7702-0.5625 5.5625-0.36674 1.7922-0.92842 3.5093-1.625 5.1562-0.38025 0.899-0.90496 1.7153-1.375 2.5625-0.0136 0.8038-0.11894 1.6076-0.0625 2.4063 0.12461 1.7632 0.38785 3.5173 0.84375 5.2187 0.4559 1.7015 1.1013 3.3482 1.875 4.9375 0.24489 0.503 0.59917 0.949 0.875 1.4375 0.27881-0.4931 0.65898-0.9296 0.90625-1.4375 0.77369-1.5893 1.4191-3.236 1.875-4.9375 0.4559-1.7014 0.71914-3.4555 0.84375-5.2187 0.0564-0.7987-0.049-1.6025-0.0625-2.4063-0.47004-0.8472-0.99475-1.6635-1.375-2.5625-0.69658-1.6469-1.2583-3.364-1.625-5.1562-0.36674-1.7923-0.53125-3.6619-0.53125-5.5625z" color="#000000" fill="#8be7f9"/>
     <path d="m267.05 1001.1c0.95032 1.646 1.7028 3.3582 2.2812 5.0937s0.96731 3.5067 1.1875 5.2813c0.12045 0.9707 0.0461 1.9354 0.0625 2.9062 0.39102 0.7048 0.7069 1.4599 1.1562 2.125 0.98951 1.4647 2.1295 2.817 3.375 4.0625 1.2455 1.2456 2.5978 2.3855 4.0625 3.375 0.46902 0.3169 1.011 0.5244 1.5 0.8125-5e-3 -0.5735 0.10282-1.1482 0.0625-1.7187-0.12461-1.7632-0.4191-3.5174-0.875-5.2188s-1.0701-3.3482-1.8438-4.9375c-0.3492-0.7173-0.83806-1.3755-1.25-2.0625-0.83956-0.5028-1.7133-0.9368-2.5-1.5312-1.4267-1.078-2.755-2.2876-3.9688-3.6563s-2.2997-2.8852-3.25-4.5312z" color="#000000" fill="#8be7f9"/>
     <path d="m267.05 1001.1c1.646 0.9503 3.1313 2.0362 4.5 3.25 1.3687 1.2137 2.6095 2.542 3.6875 3.9687 0.59143 0.7828 1.0305 1.6649 1.5312 2.5 0.68302 0.409 1.3183 0.9029 2.0312 1.25 1.5893 0.7737 3.2361 1.4191 4.9375 1.875s3.4556 0.7504 5.2188 0.875c0.58093 0.041 1.166-0.067 1.75-0.062-0.29452-0.5016-0.51902-1.0506-0.84375-1.5312-0.98951-1.4647-2.1295-2.817-3.375-4.0625-1.2455-1.2456-2.5978-2.3543-4.0625-3.3438-0.65575-0.443-1.3994-0.7699-2.0938-1.1562-0.98114-0.015-1.9563 0.059-2.9375-0.062-1.7745-0.2202-3.5458-0.6403-5.2812-1.2188s-3.4165-1.3309-5.0625-2.2812z" color="#000000" fill="#8be7f9"/>
     <path d="m280.33 997.56c-0.85874 0.4781-1.6816 1.0204-2.5938 1.4062-1.6469 0.6966-3.364 1.227-5.1562 1.5938-1.7922 0.3667-3.6306 0.5625-5.5312 0.5625 1.9006 0 3.739 0.1957 5.5312 0.5625 1.7922 0.3667 3.5094 0.8971 5.1562 1.5937 0.90956 0.3847 1.7373 0.9297 2.5938 1.4063 0.79336 0.012 1.5867 0.1182 2.375 0.062 1.7632-0.1247 3.5173-0.4191 5.2188-0.875 1.7014-0.456 3.3482-1.0701 4.9375-1.8438 0.52124-0.2537 0.99442-0.6193 1.5-0.9062-0.50558-0.287-0.97876-0.6526-1.5-0.9063-1.5893-0.77367-3.2361-1.3878-4.9375-1.8437-1.7014-0.456-3.4556-0.7504-5.2188-0.875-0.78818-0.056-1.5818 0.05-2.375 0.062z" color="#000000" fill="#8be7f9"/>
     <path d="m290.68 987.47c-0.57335 5e-3 -1.1484-0.0716-1.7188-0.0312-1.7632 0.12461-3.5173 0.4191-5.2188 0.875s-3.3482 1.0701-4.9375 1.8438c-0.71294 0.34707-1.3482 0.84095-2.0312 1.25-0.50075 0.83513-0.93982 1.7172-1.5312 2.5-1.078 1.4267-2.3188 2.7551-3.6875 3.9688s-2.854 2.2997-4.5 3.25c1.646-0.9503 3.327-1.7027 5.0625-2.2813 1.7355-0.5785 3.5067-0.9673 5.2812-1.1875 0.98129-0.1217 1.9562-0.078 2.9375-0.094 0.69179-0.3852 1.4403-0.6835 2.0938-1.125 1.4647-0.9895 2.817-2.1294 4.0625-3.375 1.2455-1.2455 2.3855-2.5978 3.375-4.0624 0.32197-0.47658 0.52022-1.0341 0.8125-1.5312z" color="#000000" fill="#8be7f9"/>
     <path d="m267.05 1001.1c1.646-0.9504 3.1313-2.0363 4.5-3.25 1.3687-1.2138 2.6095-2.5421 3.6875-3.9688 0.59143-0.7828 1.0305-1.6649 1.5312-2.5-0.83956 0.5028-1.7133 0.93685-2.5 1.5313-1.4267 1.0779-2.755 2.2875-3.9688 3.6562s-2.2997 2.8852-3.25 4.5313z" color="#000000" fill="#6bd0e3"/>
     <path d="m267.05 1001.1c0.95032-1.6461 1.7028-3.3583 2.2812-5.0938s0.96731-3.5067 1.1875-5.2812c0.12045-0.97073 0.0461-1.9355 0.0625-2.9062-0.47004 0.84722-0.99475 1.6635-1.375 2.5625-0.69658 1.6469-1.2583 3.3953-1.625 5.1875s-0.53125 3.6306-0.53125 5.5313z" color="#000000" fill="#6bd0e3"/>
     <path d="m267.05 1001.1c0-1.9007-0.19576-3.7391-0.5625-5.5313s-0.92842-3.5406-1.625-5.1875c-0.38025-0.89902-0.90496-1.7153-1.375-2.5625 0.0164 0.97076-0.058 1.9355 0.0625 2.9062 0.22019 1.7746 0.609 3.5458 1.1875 5.2812s1.3622 3.4477 2.3125 5.0938z" color="#000000" fill="#6bd0e3"/>
     <path d="m267.05 1001.1c-0.95032-1.6461-2.0675-3.1626-3.2812-4.5313s-2.542-2.5783-3.9688-3.6562c-0.78669-0.59445-1.6604-1.0285-2.5-1.5313 0.50075 0.83513 0.93982 1.7172 1.5312 2.5 1.078 1.4267 2.3188 2.755 3.6875 3.9688 1.3687 1.2137 2.8852 2.2996 4.5312 3.25z" color="#000000" fill="#6bd0e3"/>
     <path d="m267.05 1001.1c-1.646-0.9504-3.3583-1.7028-5.0938-2.2813s-3.5067-0.9673-5.2812-1.1875c-0.98129-0.1218-1.9562-0.078-2.9375-0.094 0.85874 0.4782 1.6816 1.0205 2.5938 1.4062 1.6469 0.6966 3.364 1.2271 5.1562 1.5938s3.6619 0.5625 5.5625 0.5625z" color="#000000" fill="#6bd0e3"/>
     <path d="m267.05 1001.1c-1.9006 0-3.7703 0.1957-5.5625 0.5625-1.7922 0.3667-3.5094 0.8971-5.1562 1.5937-0.90956 0.3847-1.7373 0.9297-2.5938 1.4063 0.98114-0.015 1.9563 0.059 2.9375-0.062 1.7745-0.2202 3.5458-0.6403 5.2812-1.2188s3.4478-1.3309 5.0938-2.2812z" color="#000000" fill="#6bd0e3"/>
     <path d="m267.05 1001.1c-1.646 0.9503-3.1625 2.0362-4.5312 3.25-1.3687 1.2137-2.6095 2.542-3.6875 3.9687-0.59143 0.7828-1.0305 1.6649-1.5312 2.5 0.83956-0.5028 1.7133-0.9368 2.5-1.5312 1.4267-1.078 2.755-2.2876 3.9688-3.6563s2.3309-2.8852 3.2812-4.5312z" color="#000000" fill="#6bd0e3"/>
     <path d="m267.05 1001.1c-0.95032 1.646-1.734 3.3582-2.3125 5.0937s-0.96731 3.5067-1.1875 5.2813c-0.12045 0.9707-0.0461 1.9354-0.0625 2.9062 0.47004-0.8472 0.99475-1.6635 1.375-2.5625 0.69658-1.6469 1.2583-3.364 1.625-5.1562 0.36674-1.7923 0.5625-3.6619 0.5625-5.5625z" color="#000000" fill="#6bd0e3"/>
     <path d="m267.05 1001.1c0 1.9006 0.16451 3.7702 0.53125 5.5625 0.36674 1.7922 0.92842 3.5093 1.625 5.1562 0.38025 0.899 0.90496 1.7153 1.375 2.5625-0.0164-0.9708 0.058-1.9355-0.0625-2.9062-0.22019-1.7746-0.609-3.5458-1.1875-5.2813s-1.3309-3.4477-2.2812-5.0937z" color="#000000" fill="#6bd0e3"/>
     <path d="m267.05 1001.1c0.95032 1.646 2.0363 3.1625 3.25 4.5312s2.542 2.5783 3.9688 3.6563c0.78669 0.5944 1.6604 1.0284 2.5 1.5312-0.50075-0.8351-0.93982-1.7172-1.5312-2.5-1.078-1.4267-2.3188-2.755-3.6875-3.9687-1.3687-1.2138-2.854-2.2997-4.5-3.25z" color="#000000" fill="#6bd0e3"/>
     <path d="m267.05 1001.1c1.646 0.9503 3.327 1.7027 5.0625 2.2812s3.5067 0.9986 5.2812 1.2188c0.98116 0.1217 1.9564 0.047 2.9375 0.062-0.85649-0.4766-1.6842-1.0216-2.5938-1.4063-1.6469-0.6966-3.364-1.227-5.1562-1.5937-1.7922-0.3668-3.6306-0.5625-5.5312-0.5625z" color="#000000" fill="#6bd0e3"/>
     <path d="m280.33 997.56c-0.98127 0.015-1.9562-0.028-2.9375 0.094-1.7745 0.2201-3.5458 0.6089-5.2812 1.1875-1.7355 0.5785-3.4165 1.3309-5.0625 2.2812 1.9006 0 3.739-0.1958 5.5312-0.5625s3.5094-0.89717 5.1562-1.5937c0.91211-0.3858 1.735-0.9281 2.5938-1.4063z" color="#000000" fill="#6bd0e3"/>
    </g>
   </g>
   <circle transform="matrix(2.3908 0 0 2.3908 -1573.4 -34.402)" cx="775.22" cy="337.44" r="5.0637" color="#000000" fill="#fff" filter="url(#j)" opacity=".75"/>
   <circle transform="matrix(1.0722 0 0 1.0722 -551.16 410.57)" cx="775.22" cy="337.44" r="5.0637" color="#000000" fill="#fff" filter="url(#m)" opacity=".75"/>
  </g>
  <circle transform="matrix(0 -5.3886 5.3886 0 -1307.1 2275.3)" cx="393.64" cy="289.71" r="23.024" color="#000000" fill="none" filter="url(#k)" stroke="#9ad8fb" stroke-width=".92737"/>
 </g>
</svg>
